REM DIRINDEX 1\2,1\3
REM DIRNAME cjc102,folder01,folder02
TITLE ""
FILE "CD1Track19.mp3" MP3
  TRACK 01 AUDIO
    TITLE "0:"
    INDEX 01 00:00:00
  TRACK 02 AUDIO
    TITLE "3:cjc102_0738"
    INDEX 01 00:00:25
  TRACK 03 AUDIO
    TITLE "0:"
    INDEX 01 00:01:19
  TRACK 04 AUDIO
    TITLE "2:cjc102_0739"
    INDEX 01 00:01:28
  TRACK 05 AUDIO
    TITLE "0:"
    INDEX 01 00:02:32
  TRACK 06 AUDIO
    TITLE "3:cjc102_0740"
    INDEX 01 00:02:71
  TRACK 07 AUDIO
    TITLE "0:"
    INDEX 01 00:03:53
  TRACK 08 AUDIO
    TITLE "2:cjc102_0741"
    INDEX 01 00:03:66
  TRACK 09 AUDIO
    TITLE "0:"
    INDEX 01 00:04:58
  TRACK 10 AUDIO
    TITLE "3:cjc102_0742"
    INDEX 01 00:05:30
  TRACK 11 AUDIO
    TITLE "0:"
    INDEX 01 00:06:26
  TRACK 12 AUDIO
    TITLE "2:cjc102_0743"
    INDEX 01 00:06:30
  TRACK 13 AUDIO
    TITLE "0:"
    INDEX 01 00:07:29
  TRACK 14 AUDIO
    TITLE "3:cjc102_0744"
    INDEX 01 00:07:70
  TRACK 15 AUDIO
    TITLE "0:"
    INDEX 01 00:08:60
  TRACK 16 AUDIO
    TITLE "2:cjc102_0745"
    INDEX 01 00:08:62
  TRACK 17 AUDIO
    TITLE "0:"
    INDEX 01 00:09:61
  TRACK 18 AUDIO
    TITLE "3:cjc102_0746"
    INDEX 01 00:10:33
  TRACK 19 AUDIO
    TITLE "0:"
    INDEX 01 00:11:13
  TRACK 20 AUDIO
    TITLE "2:cjc102_0747"
    INDEX 01 00:11:17
  TRACK 21 AUDIO
    TITLE "0:"
    INDEX 01 00:12:22
  TRACK 22 AUDIO
    TITLE "3:cjc102_0748"
    INDEX 01 00:12:67
  TRACK 23 AUDIO
    TITLE "0:"
    INDEX 01 00:13:61
  TRACK 24 AUDIO
    TITLE "2:cjc102_0749"
    INDEX 01 00:13:69
  TRACK 25 AUDIO
    TITLE "0:"
    INDEX 01 00:14:68
  TRACK 26 AUDIO
    TITLE "3:cjc102_0750"
    INDEX 01 00:15:54
  TRACK 27 AUDIO
    TITLE "0:"
    INDEX 01 00:16:44
  TRACK 28 AUDIO
    TITLE "2:cjc102_0751"
    INDEX 01 00:16:61
  TRACK 29 AUDIO
    TITLE "0:"
    INDEX 01 00:17:59
  TRACK 30 AUDIO
    TITLE "2:cjc102_0752"
    INDEX 01 00:18:37
  TRACK 31 AUDIO
    TITLE "0:"
    INDEX 01 00:19:40
  TRACK 32 AUDIO
    TITLE "3:cjc102_0753"
    INDEX 01 00:20:20
  TRACK 33 AUDIO
    TITLE "0:"
    INDEX 01 00:21:13
  TRACK 34 AUDIO
    TITLE "2:cjc102_0754"
    INDEX 01 00:21:41
  TRACK 35 AUDIO
    TITLE "0:"
    INDEX 01 00:22:46
  TRACK 36 AUDIO
    TITLE "2:cjc102_0755"
    INDEX 01 00:23:04
  TRACK 37 AUDIO
    TITLE "0:"
    INDEX 01 00:24:16
  TRACK 38 AUDIO
    TITLE "3:cjc102_0756"
    INDEX 01 00:25:19
  TRACK 39 AUDIO
    TITLE "0:"
    INDEX 01 00:26:11
  TRACK 40 AUDIO
    TITLE "2:cjc102_0757"
    INDEX 01 00:26:22
  TRACK 41 AUDIO
    TITLE "0:"
    INDEX 01 00:27:28
  TRACK 42 AUDIO
    TITLE "3:cjc102_0758"
    INDEX 01 00:28:13
  TRACK 43 AUDIO
    TITLE "0:"
    INDEX 01 00:29:11
  TRACK 44 AUDIO
    TITLE "2:cjc102_0759"
    INDEX 01 00:29:23
  TRACK 45 AUDIO
    TITLE "0:"
    INDEX 01 00:30:28
  TRACK 46 AUDIO
    TITLE "3:cjc102_0760"
    INDEX 01 00:31:12
  TRACK 47 AUDIO
    TITLE "0:"
    INDEX 01 00:32:29
  TRACK 48 AUDIO
    TITLE "2:cjc102_0761"
    INDEX 01 00:32:41
  TRACK 49 AUDIO
    TITLE "0:"
    INDEX 01 00:33:50
  TRACK 50 AUDIO
    TITLE "3:cjc102_0762"
    INDEX 01 00:34:34
  TRACK 51 AUDIO
    TITLE "0:"
    INDEX 01 00:35:41
  TRACK 52 AUDIO
    TITLE "2:cjc102_0763"
    INDEX 01 00:35:55
  TRACK 53 AUDIO
    TITLE "0:"
    INDEX 01 00:36:58
  TRACK 54 AUDIO
    TITLE "3:cjc102_0764"
    INDEX 01 00:37:56
  TRACK 55 AUDIO
    TITLE "0:"
    INDEX 01 00:38:71
  TRACK 56 AUDIO
    TITLE "2:cjc102_0765"
    INDEX 01 00:39:11
  TRACK 57 AUDIO
    TITLE "0:"
    INDEX 01 00:40:17
  TRACK 58 AUDIO
    TITLE "2:cjc102_0766"
    INDEX 01 00:40:32
  TRACK 59 AUDIO
    TITLE "0:"
    INDEX 01 00:41:38
  TRACK 60 AUDIO
    TITLE "3:cjc102_0767"
    INDEX 01 00:42:12
  TRACK 61 AUDIO
    TITLE "0:"
    INDEX 01 00:43:29
  TRACK 62 AUDIO
    TITLE "2:cjc102_0768"
    INDEX 01 00:43:35
  TRACK 63 AUDIO
    TITLE "0:"
    INDEX 01 00:44:46
  TRACK 64 AUDIO
    TITLE "2:cjc102_0769"
    INDEX 01 00:44:56
  TRACK 65 AUDIO
    TITLE "0:"
    INDEX 01 00:45:65
  TRACK 66 AUDIO
    TITLE "3:cjc102_0770"
    INDEX 01 00:46:66
  TRACK 67 AUDIO
    TITLE "0:"
    INDEX 01 00:47:70
  TRACK 68 AUDIO
    TITLE "2:cjc102_0771"
    INDEX 01 00:48:36
  TRACK 69 AUDIO
    TITLE "0:"
    INDEX 01 00:49:43
  TRACK 70 AUDIO
    TITLE "2:cjc102_0772"
    INDEX 01 00:49:57
  TRACK 71 AUDIO
    TITLE "0:"
    INDEX 01 00:50:62
  TRACK 72 AUDIO
    TITLE "3:cjc102_0773"
    INDEX 01 00:51:58
  TRACK 73 AUDIO
    TITLE "0:"
    INDEX 01 00:52:61
  TRACK 74 AUDIO
    TITLE "2:cjc102_0774"
    INDEX 01 00:53:11
  TRACK 75 AUDIO
    TITLE "0:"
    INDEX 01 00:54:11
  TRACK 76 AUDIO
    TITLE "2:cjc102_0775"
    INDEX 01 00:54:25
  TRACK 77 AUDIO
    TITLE "0:"
    INDEX 01 00:55:32
  TRACK 78 AUDIO
    TITLE "3:cjc102_0776"
    INDEX 01 00:56:16
  TRACK 79 AUDIO
    TITLE "0:"
    INDEX 01 00:57:31
  TRACK 80 AUDIO
    TITLE "2:cjc102_0777"
    INDEX 01 00:57:50
  TRACK 81 AUDIO
    TITLE "0:"
    INDEX 01 00:58:62
  TRACK 82 AUDIO
    TITLE "2:cjc102_0778"
    INDEX 01 00:58:66
  TRACK 83 AUDIO
    TITLE "0:"
    INDEX 01 00:59:71
  TRACK 84 AUDIO
    TITLE "3:cjc102_0779"
    INDEX 01 01:00:70
  TRACK 85 AUDIO
    TITLE "0:"
    INDEX 01 01:02:16
  TRACK 86 AUDIO
    TITLE "2:cjc102_0780"
    INDEX 01 01:02:44
  TRACK 87 AUDIO
    TITLE "0:"
    INDEX 01 01:03:51
  TRACK 88 AUDIO
    TITLE "2:cjc102_0781"
    INDEX 01 01:04:03
  TRACK 89 AUDIO
    TITLE "0:"
    INDEX 01 01:05:11
